<svg xmlns="http://www.w3.org/2000/svg" viewBox="0 0 35.64 52.07"><defs><style>.cls-1{fill:#fff;}</style></defs><g id="Layer_2" data-name="Layer 2"><g id="Layer_1-2" data-name="Layer 1"><path class="cls-1" d="M35.51,6.51a10,10,0,0,1-7.6,3.5,10,10,0,0,1-7.6-3.5A10,10,0,0,1,17.9,0a10,10,0,0,1-2.41,6.51A10,10,0,0,1,7.89,10a10,10,0,0,1-7.6-3.5H0V41.85A10.23,10.23,0,0,0,10.22,52.07H25.41A10.23,10.23,0,0,0,35.64,41.85V6.51ZM13.26,24.1v4.56H26.93V42.33H8.71v-5.7h7a3.45,3.45,0,1,0-.08-2.28H8.71V28.73h0V22.28l9.19-9.19L19.8,15l7.13,7.13v4.26H22.38V24.1h0l-4.47-4.56h0l-.08-.08"/></g></g></svg>