<svg xmlns="http://www.w3.org/2000/svg" viewBox="0 0 62.83 114.74"><defs><style>.cls-1{fill:#fff;}</style></defs><g id="Layer_2" data-name="Layer 2"><g id="Layer_1-2" data-name="Layer 1"><path class="cls-1" d="M13.68,98.3l-.77,3.12c-.32-.11-.69-.22-1.1-.33a10.86,10.86,0,0,0-1.29-.23c-.44-.06-.88-.1-1.34-.14s-.88,0-1.28,0a4.89,4.89,0,0,0-2.19.38,1.32,1.32,0,0,0-.5,1.94,2.09,2.09,0,0,0,.77.62,8.31,8.31,0,0,0,1.36.52c.56.17,1.24.35,2,.54a15.26,15.26,0,0,1,2.21.78,5.92,5.92,0,0,1,1.59,1,3.65,3.65,0,0,1,.95,1.36,4.85,4.85,0,0,1,.31,1.82,4.43,4.43,0,0,1-.85,2.74A5.18,5.18,0,0,1,11,114.15a12.71,12.71,0,0,1-4.15.59c-.51,0-1.07,0-1.66-.07s-1.17-.12-1.75-.22-1.14-.21-1.68-.35-1.06-.28-1.54-.44l.8-3.12a9.5,9.5,0,0,0,1.45.44c.52.12,1.05.24,1.58.34a15.17,15.17,0,0,0,1.57.22c.52,0,1,0,1.49,0a7,7,0,0,0,1.75-.17,2,2,0,0,0,1-.54,1.27,1.27,0,0,0,.32-.89,1,1,0,0,0-.32-.76,3.18,3.18,0,0,0-1-.6,15.57,15.57,0,0,0-1.62-.56c-.65-.19-1.4-.43-2.25-.7a9.77,9.77,0,0,1-1.89-.79,5.46,5.46,0,0,1-1.36-1A4.18,4.18,0,0,1,1,104.19a5,5,0,0,1-.28-1.74,4.8,4.8,0,0,1,.42-2,4.1,4.1,0,0,1,1.28-1.6,6.53,6.53,0,0,1,2.22-1,12.21,12.21,0,0,1,3.23-.37,20.36,20.36,0,0,1,2.22.12c.73.08,1.41.18,2,.31A13.88,13.88,0,0,1,13.68,98.3Z"/><path class="cls-1" d="M23.62,114.74a11.56,11.56,0,0,1-2.67-.29,6.89,6.89,0,0,1-2.15-.9,5.1,5.1,0,0,1-1.57-1.63,8.7,8.7,0,0,1-1-2.45,14.42,14.42,0,0,1-.35-3.37,16.47,16.47,0,0,1,.31-3.37,7.66,7.66,0,0,1,1-2.43,5.5,5.5,0,0,1,1.59-1.63,6.55,6.55,0,0,1,2.14-.92,11.29,11.29,0,0,1,2.72-.29,11.43,11.43,0,0,1,2.71.29,6.6,6.6,0,0,1,2.15.9A5,5,0,0,1,30,100.27a7.69,7.69,0,0,1,.95,2.45,15,15,0,0,1,.33,3.33,15.48,15.48,0,0,1-.33,3.4,7.44,7.44,0,0,1-1,2.46,5.69,5.69,0,0,1-1.57,1.63,6.35,6.35,0,0,1-2.14.91A11.68,11.68,0,0,1,23.62,114.74Zm0-3.19a4.15,4.15,0,0,0,1.18-.16,2.38,2.38,0,0,0,1-.54,3.15,3.15,0,0,0,.73-1,5.94,5.94,0,0,0,.47-1.55,13.06,13.06,0,0,0,.17-2.23,12.65,12.65,0,0,0-.17-2.19,6.14,6.14,0,0,0-.47-1.56,2.93,2.93,0,0,0-.73-1,2.53,2.53,0,0,0-1-.53,4.2,4.2,0,0,0-1.2-.16,4,4,0,0,0-1.19.16,2.89,2.89,0,0,0-1,.5,2.81,2.81,0,0,0-.75,1,5.79,5.79,0,0,0-.48,1.58A13,13,0,0,0,20,106.1a11.85,11.85,0,0,0,.18,2.22,6.46,6.46,0,0,0,.48,1.55,2.93,2.93,0,0,0,.73,1,2.5,2.5,0,0,0,1,.53A4.19,4.19,0,0,0,23.62,111.55Z"/><path class="cls-1" d="M32.47,114.5v-3.24L40.87,101V101h-8V97.7H45.72v3.22l-8.26,10.24v0H46.2v3.29Z"/><path class="cls-1" d="M47.23,114.5l5.31-16.87h4.89l5.4,16.87H58.39l-.91-3.12H52.37l-.91,3.12ZM53.11,108h3.63l-1.83-7.27Z"/><path class="cls-1" d="M61,11.18a17.14,17.14,0,0,1-13.06,6,17.13,17.13,0,0,1-13-6A17.09,17.09,0,0,1,30.75,0a17.09,17.09,0,0,1-4.13,11.18,17.17,17.17,0,0,1-13.06,6,17.14,17.14,0,0,1-13.06-6H0V71.89A17.57,17.57,0,0,0,17.57,89.46H43.66A17.57,17.57,0,0,0,61.22,71.89V11.18ZM22.78,41.4v7.83H46.27V72.72H15V62.93H27a5.92,5.92,0,0,0,5.78,3.78A6,6,0,0,0,38.42,61,5.94,5.94,0,0,0,26.82,59H15V49.35h0V38.28L30.75,22.49,34,25.75,46.27,38v7.32H38.44V41.4h0l-7.67-7.82,0,0-.14-.14"/></g></g></svg>