<svg xmlns="http://www.w3.org/2000/svg" viewBox="0 0 304.43 83.87"><defs><style>.cls-1{fill:#1f1e26;}.cls-2{fill:#93278f;}</style></defs><g id="Layer_2" data-name="Layer 2"><g id="Layer_1-2" data-name="Layer 1"><path class="cls-1" d="M86.2,22.74l-.83,3.37c-.35-.12-.75-.23-1.2-.35s-.91-.19-1.39-.26-1-.1-1.45-.14-1-.05-1.39-.05a5.24,5.24,0,0,0-2.36.42,1.33,1.33,0,0,0-.8,1.27,1.42,1.42,0,0,0,.25.83,2.37,2.37,0,0,0,.84.66,8.38,8.38,0,0,0,1.47.57c.61.18,1.34.38,2.18.58a15.72,15.72,0,0,1,2.39.85,6.78,6.78,0,0,1,1.73,1.11,4,4,0,0,1,1,1.48A5.2,5.2,0,0,1,87,35a4.84,4.84,0,0,1-.92,3,5.57,5.57,0,0,1-2.74,1.87,13.55,13.55,0,0,1-4.49.64c-.55,0-1.15,0-1.79-.08s-1.27-.13-1.89-.23-1.23-.23-1.82-.38-1.14-.31-1.66-.48L72.54,36a11.28,11.28,0,0,0,1.58.48q.84.2,1.71.36a14.72,14.72,0,0,0,1.7.23c.55.05,1.09.07,1.61.07a7.42,7.42,0,0,0,1.89-.2,2.18,2.18,0,0,0,1.08-.58,1.4,1.4,0,0,0,.35-1,1.15,1.15,0,0,0-.35-.82,3.59,3.59,0,0,0-1-.65,17.15,17.15,0,0,0-1.75-.61c-.7-.2-1.51-.46-2.43-.75a10.53,10.53,0,0,1-2-.86,5.91,5.91,0,0,1-1.47-1.11,4.23,4.23,0,0,1-.89-1.47,5.34,5.34,0,0,1-.31-1.88,5.21,5.21,0,0,1,.45-2.15A4.45,4.45,0,0,1,74,23.35a6.86,6.86,0,0,1,2.4-1.12,13.68,13.68,0,0,1,3.49-.4,23.8,23.8,0,0,1,2.4.13c.79.09,1.52.2,2.21.34A13.25,13.25,0,0,1,86.2,22.74Z"/><path class="cls-1" d="M88.45,33.17a12.81,12.81,0,0,1,.34-3.07,5.58,5.58,0,0,1,1.13-2.27A5,5,0,0,1,92,26.39a10.9,10.9,0,0,1,6.59,0,4.84,4.84,0,0,1,2.09,1.44,5.69,5.69,0,0,1,1.12,2.27,12.81,12.81,0,0,1,.34,3.07,12.36,12.36,0,0,1-.37,3.12,5.79,5.79,0,0,1-1.16,2.31A5.09,5.09,0,0,1,98.51,40a10.52,10.52,0,0,1-6.41,0A5,5,0,0,1,90,38.6a5.67,5.67,0,0,1-1.17-2.31A11.92,11.92,0,0,1,88.45,33.17Zm4.39,0a9.56,9.56,0,0,0,.25,2.47,2.14,2.14,0,0,0,.8,1.28,2.88,2.88,0,0,0,2.86,0,2.33,2.33,0,0,0,.79-1.28,9.5,9.5,0,0,0,.26-2.47,9.92,9.92,0,0,0-.24-2.45,2.07,2.07,0,0,0-.76-1.26,3.22,3.22,0,0,0-3,0,2,2,0,0,0-.78,1.26A10.6,10.6,0,0,0,92.84,33.17Z"/><path class="cls-1" d="M103.45,40.26V37.33l6.78-7.89h-6.46v-3.3h11.62V29l-6.67,7.92h7.06v3.32Z"/><path class="cls-1" d="M117.08,36.39a4.25,4.25,0,0,1,.48-2.13A3.29,3.29,0,0,1,119,33a10.16,10.16,0,0,1,2.53-.76,31,31,0,0,1,3.63-.42v-.88a1.22,1.22,0,0,0-.66-1.13,3.8,3.8,0,0,0-1.86-.38q-.54,0-1.23.06a11,11,0,0,0-1.44.2l-1.5.34-.7-3.29a17.4,17.4,0,0,1,2.55-.59,16.41,16.41,0,0,1,2.61-.22,10.39,10.39,0,0,1,3.71.56,4,4,0,0,1,2.08,1.67,5.43,5.43,0,0,1,.65,2.75v4.91a1.39,1.39,0,0,0,.19.87.58.58,0,0,0,.46.22h.29a.51.51,0,0,0,.3-.1l.31,3.07a4.38,4.38,0,0,1-1.11.5,5,5,0,0,1-1.43.2,3.28,3.28,0,0,1-1.76-.42,2.76,2.76,0,0,1-1.07-1.19,11.71,11.71,0,0,1-1.35.84,6.48,6.48,0,0,1-1.48.57,7.36,7.36,0,0,1-1.79.2,4.22,4.22,0,0,1-1.57-.29,3.7,3.7,0,0,1-1.24-.81,3.41,3.41,0,0,1-.81-1.3A5.19,5.19,0,0,1,117.08,36.39Zm4.25-.26a1.74,1.74,0,0,0,.37,1.22,1.27,1.27,0,0,0,1,.39,3.19,3.19,0,0,0,.89-.13,5.38,5.38,0,0,0,.91-.36,2.36,2.36,0,0,0,.72-.6V34a11.9,11.9,0,0,0-1.67.19,7,7,0,0,0-1.2.35,1.7,1.7,0,0,0-.74.6A1.72,1.72,0,0,0,121.33,36.13Z"/><path class="cls-1" d="M139.89,40.26V22.09h13v3.82h-8.51v4.54h7.37v3.74h-7.37v6.07Z"/><path class="cls-1" d="M158.45,40.52a4.83,4.83,0,0,1-2.18-.47,3.42,3.42,0,0,1-1.47-1.4,4.89,4.89,0,0,1-.53-2.41V26.14h4.25v9.08a1.74,1.74,0,0,0,.45,1.33,1.69,1.69,0,0,0,1.19.41,5,5,0,0,0,.79-.06,3.41,3.41,0,0,0,.77-.24l.85-.37V26.14h4.23v9.73a1.83,1.83,0,0,0,.09.63.62.62,0,0,0,.25.31.77.77,0,0,0,.34.07,1.27,1.27,0,0,0,.54-.1l.37,3.06a6,6,0,0,1-.76.33,8.13,8.13,0,0,1-.92.24,5.05,5.05,0,0,1-1,.11,3.11,3.11,0,0,1-1.6-.38,2.8,2.8,0,0,1-1-1.08,8.64,8.64,0,0,1-1.46.78,8.52,8.52,0,0,1-1.5.5A7.41,7.41,0,0,1,158.45,40.52Z"/><path class="cls-1" d="M173.71,26.14v1.64a10.42,10.42,0,0,1,1.36-1.11,4.77,4.77,0,0,1,1.23-.59,4.54,4.54,0,0,1,1.35-.2,5.48,5.48,0,0,1,.88.07,6.26,6.26,0,0,1,.94.19L178.79,30a7.67,7.67,0,0,0-.93-.19,6.92,6.92,0,0,0-.86-.07,4.75,4.75,0,0,0-1.39.22,6,6,0,0,0-1.49.8v9.47h-4.25V26.14Z"/><path class="cls-1" d="M181,40.26V26.14h3.87v1.22a12.74,12.74,0,0,1,1.63-.84A7.25,7.25,0,0,1,188,26a7.37,7.37,0,0,1,1.56-.16,4.88,4.88,0,0,1,2.31.49,3.14,3.14,0,0,1,1.36,1.41,4.64,4.64,0,0,1,.46,2.15V40.26h-4.26V31.33A2,2,0,0,0,189,29.9a1.7,1.7,0,0,0-1.25-.44,3.85,3.85,0,0,0-.8.09,5.91,5.91,0,0,0-.82.24,8,8,0,0,0-.84.35V40.26Z"/><path class="cls-1" d="M198.44,24.66a2.84,2.84,0,0,1-1.9-.53,2.07,2.07,0,0,1-.59-1.6,2.06,2.06,0,0,1,.58-1.63,3.73,3.73,0,0,1,3.8,0,2,2,0,0,1,.6,1.63,2,2,0,0,1-.6,1.6A2.82,2.82,0,0,1,198.44,24.66Zm-2.16,15.6V26.14h4.26V40.26Z"/><path class="cls-1" d="M208.45,40.52a4.8,4.8,0,0,1-2.33-.53,3.35,3.35,0,0,1-1.45-1.68,7.42,7.42,0,0,1-.5-2.93V29.2h-2V26.4l2-.26.52-3h3.74v3H212v3.09h-3.53V35a2.33,2.33,0,0,0,.36,1.47,1.43,1.43,0,0,0,1.14.43,5.2,5.2,0,0,0,1-.09l1-.22.6,3.21a11.68,11.68,0,0,1-2.12.52A12.22,12.22,0,0,1,208.45,40.52Z"/><path class="cls-1" d="M218.26,40.52a4.86,4.86,0,0,1-2.18-.47,3.4,3.4,0,0,1-1.46-1.4,4.78,4.78,0,0,1-.53-2.41V26.14h4.25v9.08a1.77,1.77,0,0,0,.44,1.33A1.73,1.73,0,0,0,220,37a5.06,5.06,0,0,0,.79-.06,3.18,3.18,0,0,0,.76-.24l.86-.37V26.14h4.23v9.73a1.83,1.83,0,0,0,.09.63.62.62,0,0,0,.25.31.74.74,0,0,0,.34.07,1.3,1.3,0,0,0,.54-.1l.36,3.06a5.27,5.27,0,0,1-.75.33,8.73,8.73,0,0,1-.92.24,5.05,5.05,0,0,1-1,.11,3.11,3.11,0,0,1-1.6-.38,2.82,2.82,0,0,1-1-1.08,9.41,9.41,0,0,1-2.95,1.28A7.44,7.44,0,0,1,218.26,40.52Z"/><path class="cls-1" d="M233.52,26.14v1.64a11.14,11.14,0,0,1,1.37-1.11,4.62,4.62,0,0,1,1.23-.59,4.45,4.45,0,0,1,1.35-.2,5.48,5.48,0,0,1,.88.07,6.53,6.53,0,0,1,.94.19L238.61,30a7.67,7.67,0,0,0-.93-.19,6.92,6.92,0,0,0-.86-.07,4.75,4.75,0,0,0-1.39.22,5.78,5.78,0,0,0-1.49.8v9.47h-4.26V26.14Z"/><path class="cls-1" d="M246.55,40.52a10,10,0,0,1-2.93-.39,5.18,5.18,0,0,1-2.15-1.25,5.65,5.65,0,0,1-1.37-2.19,9.42,9.42,0,0,1-.48-3.18,10.3,10.3,0,0,1,.54-3.54,6,6,0,0,1,1.48-2.38,5.6,5.6,0,0,1,2.24-1.31,9.88,9.88,0,0,1,2.86-.4,6.06,6.06,0,0,1,4.55,1.54q1.47,1.54,1.47,5v.67a4.34,4.34,0,0,1-.06.76c-.45,0-1,.11-1.61.16l-2.07.15c-.76.06-1.56.09-2.4.12l-2.58.12a.23.23,0,0,0,0,.13v.18a2.93,2.93,0,0,0,.36,1.41,2,2,0,0,0,1,.82,5.86,5.86,0,0,0,1.91.26q.73,0,1.53-.06c.54,0,1.08-.12,1.64-.21s1.11-.21,1.66-.33l.49,3a14.29,14.29,0,0,1-1.87.51,20.24,20.24,0,0,1-2,.29C248.07,40.48,247.33,40.52,246.55,40.52Zm-2.49-8.7c.47,0,.92,0,1.35,0l1.26-.05,1.08-.07.78-.06a7,7,0,0,0-.26-1.64,1.48,1.48,0,0,0-.67-.87,2.42,2.42,0,0,0-1.15-.24,2.56,2.56,0,0,0-.82.13,1.81,1.81,0,0,0-.74.45,2.4,2.4,0,0,0-.54.89A5.86,5.86,0,0,0,244.06,31.82Z"/><path class="cls-1" d="M254.26,39.71l.47-3a9.78,9.78,0,0,0,1.07.27c.41.08.83.16,1.28.23a12.09,12.09,0,0,0,1.28.16c.42,0,.8,0,1.17,0a3.16,3.16,0,0,0,1.49-.27.92.92,0,0,0,.48-.85.79.79,0,0,0-.25-.6,2.21,2.21,0,0,0-.71-.41,6.13,6.13,0,0,0-1.12-.31L258,34.63a6.77,6.77,0,0,1-1.52-.56,4.68,4.68,0,0,1-1.13-.84,2.85,2.85,0,0,1-.67-1.17,5,5,0,0,1-.21-1.48A4.25,4.25,0,0,1,255.93,27a7,7,0,0,1,4.4-1.16A15,15,0,0,1,262,26a15.26,15.26,0,0,1,1.53.26c.49.11.94.23,1.33.35l-.51,3.14a9.75,9.75,0,0,0-1.17-.34,11.57,11.57,0,0,0-1.3-.19q-.7-.06-1.56-.06a3.21,3.21,0,0,0-1.39.24.84.84,0,0,0-.48.79.8.8,0,0,0,.19.53,1.3,1.3,0,0,0,.55.37,5.27,5.27,0,0,0,.9.24l1.22.24a11.22,11.22,0,0,1,1.72.52,4.92,4.92,0,0,1,1.37.79,3.24,3.24,0,0,1,.89,1.22,4.39,4.39,0,0,1,.33,1.8,4.93,4.93,0,0,1-.31,1.79,3.77,3.77,0,0,1-.9,1.34,4.37,4.37,0,0,1-1.35.88,7.18,7.18,0,0,1-1.7.48,11,11,0,0,1-1.92.16,17.49,17.49,0,0,1-1.8-.09c-.58-.06-1.16-.15-1.73-.26A11.64,11.64,0,0,1,254.26,39.71Z"/><path class="cls-1" d="M281,40.52a7.65,7.65,0,0,1-5-1.46,4.79,4.79,0,0,1-1.78-3.91,5.35,5.35,0,0,1,.9-3.09A6.39,6.39,0,0,1,278,29.88l1.95,2.33a3.46,3.46,0,0,0-1.23,1,2.48,2.48,0,0,0-.4,1.47,2.39,2.39,0,0,0,.41,1.41,2.77,2.77,0,0,0,1.16.93,4,4,0,0,0,1.72.34,4.19,4.19,0,0,0,1.68-.29,2.88,2.88,0,0,0,1.05-.8l2,2.41a8.31,8.31,0,0,1-1.48,1,7.47,7.47,0,0,1-1.76.62A9.45,9.45,0,0,1,281,40.52Zm6.15-.16-9-9.5a6.37,6.37,0,0,1-1-1.35,5.65,5.65,0,0,1-.74-2.8,5,5,0,0,1,.64-2.57,4.24,4.24,0,0,1,2-1.7,8.62,8.62,0,0,1,3.48-.61,7,7,0,0,1,4.2,1.07,3.66,3.66,0,0,1,1.46,3.16,4.74,4.74,0,0,1-.33,1.78,3.93,3.93,0,0,1-1,1.45,5.92,5.92,0,0,1-1.75,1.11l-1.66-1.92a2.33,2.33,0,0,0,.68-.74,2.1,2.1,0,0,0,.22-1,1.8,1.8,0,0,0-.19-.87,1.27,1.27,0,0,0-.57-.53,2.35,2.35,0,0,0-1-.18,2,2,0,0,0-1.38.4,1.47,1.47,0,0,0-.46,1.18,2.15,2.15,0,0,0,.11.71,3,3,0,0,0,.42.78c.2.29.45.61.76,1l10.05,11.08Zm1.59-3.16-2.44-3a3.32,3.32,0,0,0,.54-1,5.34,5.34,0,0,0,.23-1.25,2.25,2.25,0,0,0,0-.57q0-.25-.06-.54l3.4,0,.09.66c0,.22,0,.47,0,.74a7,7,0,0,1-.5,2.64A9.73,9.73,0,0,1,288.73,37.2Z"/><path class="cls-1" d="M72.83,71.4V53.23h4.41V71.4Z"/><path class="cls-1" d="M79.94,71.4V57.28h3.87V58.5a17.09,17.09,0,0,1,1.63-.84A7.34,7.34,0,0,1,87,57.18,7.93,7.93,0,0,1,88.51,57a4.82,4.82,0,0,1,2.31.5,3.23,3.23,0,0,1,1.36,1.4,4.77,4.77,0,0,1,.45,2.15V71.4H88.38V62.47a1.92,1.92,0,0,0-.45-1.42,1.66,1.66,0,0,0-1.24-.45,3.9,3.9,0,0,0-.81.1,5.74,5.74,0,0,0-.81.23,8.09,8.09,0,0,0-.85.35V71.4Z"/><path class="cls-1" d="M100.52,71.66a4.78,4.78,0,0,1-2.33-.53,3.37,3.37,0,0,1-1.46-1.68,7.4,7.4,0,0,1-.49-2.93V60.35h-2V57.54l2-.26.52-3h3.74v3H104v3.09H100.5v5.81a2.29,2.29,0,0,0,.36,1.47,1.39,1.39,0,0,0,1.14.43,5.36,5.36,0,0,0,1-.09l1-.22.6,3.22a12.75,12.75,0,0,1-2.12.51A12.32,12.32,0,0,1,100.52,71.66Z"/><path class="cls-1" d="M112.25,71.66a10,10,0,0,1-2.93-.39A5.16,5.16,0,0,1,107.17,70a5.76,5.76,0,0,1-1.37-2.2,9.42,9.42,0,0,1-.48-3.18,10.3,10.3,0,0,1,.54-3.54,6,6,0,0,1,1.47-2.37,5.48,5.48,0,0,1,2.25-1.31,9.53,9.53,0,0,1,2.85-.41A6,6,0,0,1,117,58.57c1,1,1.46,2.68,1.46,5v.66a4.4,4.4,0,0,1,0,.76c-.45.06-1,.11-1.61.16l-2.07.16c-.76,0-1.56.09-2.4.11l-2.58.12a.25.25,0,0,0,0,.13v.18a3,3,0,0,0,.36,1.42,2,2,0,0,0,1.05.81,5.6,5.6,0,0,0,1.91.26q.73,0,1.53-.06c.54,0,1.08-.11,1.64-.21s1.1-.2,1.66-.32l.49,3a14.74,14.74,0,0,1-1.87.51,20.19,20.19,0,0,1-2,.3C113.77,71.63,113,71.66,112.25,71.66ZM109.76,63q.7,0,1.35,0l1.26,0,1.08-.07.77-.06a6.11,6.11,0,0,0-.26-1.64,1.43,1.43,0,0,0-.66-.87,2.42,2.42,0,0,0-1.15-.24,2.56,2.56,0,0,0-.82.13,1.92,1.92,0,0,0-.74.45,2.32,2.32,0,0,0-.54.9A5.68,5.68,0,0,0,109.76,63Z"/><path class="cls-1" d="M124.45,57.28v1.64a11.13,11.13,0,0,1,1.36-1.11,5.31,5.31,0,0,1,1.23-.59,4.54,4.54,0,0,1,1.35-.2,7.23,7.23,0,0,1,.89.07,7.67,7.67,0,0,1,.93.19l-.67,3.9a6.58,6.58,0,0,0-.94-.2,6.79,6.79,0,0,0-.86-.06,4.38,4.38,0,0,0-1.38.22,5.47,5.47,0,0,0-1.5.79V71.4h-4.25V57.28Z"/><path class="cls-1" d="M133.9,55.8a2.78,2.78,0,0,1-1.9-.53,2,2,0,0,1-.6-1.59A2.09,2.09,0,0,1,132,52a3.73,3.73,0,0,1,3.8,0,2.06,2.06,0,0,1,.6,1.64,2,2,0,0,1-.6,1.59A2.77,2.77,0,0,1,133.9,55.8Zm-2.16,15.6V57.28H136V71.4Z"/><path class="cls-1" d="M138.13,64.32a12.92,12.92,0,0,1,.33-3.08A5.58,5.58,0,0,1,139.59,59a5.18,5.18,0,0,1,2.1-1.44,10.93,10.93,0,0,1,6.6,0A5,5,0,0,1,150.37,59a5.56,5.56,0,0,1,1.12,2.27,13.86,13.86,0,0,1,0,6.19,5.86,5.86,0,0,1-1.17,2.31,5.14,5.14,0,0,1-2.12,1.43,10.73,10.73,0,0,1-6.41,0,5.1,5.1,0,0,1-2.11-1.43,5.61,5.61,0,0,1-1.17-2.31A12.3,12.3,0,0,1,138.13,64.32Zm4.38,0a9.48,9.48,0,0,0,.25,2.46,2.14,2.14,0,0,0,.8,1.29,2.95,2.95,0,0,0,2.86,0,2.27,2.27,0,0,0,.79-1.29,9.41,9.41,0,0,0,.26-2.46,10.55,10.55,0,0,0-.23-2.46,2.19,2.19,0,0,0-.77-1.26,2.62,2.62,0,0,0-1.49-.36,2.67,2.67,0,0,0-1.47.36,2.05,2.05,0,0,0-.78,1.26A10.64,10.64,0,0,0,142.51,64.32Z"/><path class="cls-1" d="M157.77,57.28v1.64a11.13,11.13,0,0,1,1.36-1.11,5.18,5.18,0,0,1,1.24-.59,4.45,4.45,0,0,1,1.35-.2,7.08,7.08,0,0,1,.88.07,7.67,7.67,0,0,1,.93.19l-.67,3.9a6,6,0,0,0-.94-.2,6.65,6.65,0,0,0-.85-.06,4.44,4.44,0,0,0-1.39.22,5.29,5.29,0,0,0-1.49.79V71.4h-4.26V57.28Z"/><path class="cls-1" d="M179.52,71.66c-.9,0-1.75,0-2.54,0s-1.57,0-2.3-.07l-2.19-.11V53.23l2.33-.14Q175.92,53,177,53c.74,0,1.51,0,2.3,0a11.73,11.73,0,0,1,5.17,1,5.88,5.88,0,0,1,2.86,3,13.51,13.51,0,0,1,.9,5.34,12.64,12.64,0,0,1-1,5.29,6.22,6.22,0,0,1-2.9,3.06A10.59,10.59,0,0,1,179.52,71.66Zm.34-3.45a3.71,3.71,0,0,0,2.1-.58,3.66,3.66,0,0,0,1.31-1.87,10.64,10.64,0,0,0,.45-3.42,11.26,11.26,0,0,0-.43-3.5A3.26,3.26,0,0,0,182,57a4.14,4.14,0,0,0-2.25-.56l-1,0-1,.05-.85,0V68.08l.69.06a5.74,5.74,0,0,0,.73,0l.75,0Z"/><path class="cls-1" d="M196.8,71.66a10,10,0,0,1-2.93-.39A5.16,5.16,0,0,1,191.72,70a5.76,5.76,0,0,1-1.37-2.2,9.42,9.42,0,0,1-.48-3.18,10.3,10.3,0,0,1,.54-3.54,5.89,5.89,0,0,1,1.48-2.37,5.38,5.38,0,0,1,2.24-1.31A9.55,9.55,0,0,1,197,57a6,6,0,0,1,4.55,1.55c1,1,1.47,2.68,1.47,5v.66A4.34,4.34,0,0,1,203,65c-.45.06-1,.11-1.61.16l-2.07.16c-.76,0-1.56.09-2.4.11l-2.58.12a.25.25,0,0,0,0,.13v.18a3,3,0,0,0,.36,1.42,2,2,0,0,0,1,.81,5.6,5.6,0,0,0,1.91.26q.73,0,1.53-.06c.54,0,1.08-.11,1.64-.21s1.11-.2,1.66-.32l.49,3a14.29,14.29,0,0,1-1.87.51,20.19,20.19,0,0,1-2,.3C198.32,71.63,197.58,71.66,196.8,71.66ZM194.31,63q.7,0,1.35,0l1.26,0,1.08-.07.78-.06a7,7,0,0,0-.26-1.64,1.48,1.48,0,0,0-.67-.87A2.42,2.42,0,0,0,196.7,60a2.56,2.56,0,0,0-.82.13,1.92,1.92,0,0,0-.74.45,2.45,2.45,0,0,0-.54.9A5.68,5.68,0,0,0,194.31,63Z"/><path class="cls-1" d="M204.56,64.55a9.14,9.14,0,0,1,.85-4.17,5.55,5.55,0,0,1,2.49-2.51,8.61,8.61,0,0,1,4-.85c.55,0,1.1,0,1.66.07s1.09.1,1.62.18a10.78,10.78,0,0,1,1.41.3L216,61.1a12.06,12.06,0,0,0-1.25-.21l-1.24-.13c-.4,0-.78,0-1.15,0a4,4,0,0,0-1.89.4,2.58,2.58,0,0,0-1.13,1.22,5.12,5.12,0,0,0-.38,2.12,4.33,4.33,0,0,0,.41,2,2.64,2.64,0,0,0,1.18,1.2,4.26,4.26,0,0,0,1.92.4c.38,0,.78,0,1.19,0s.84-.08,1.26-.14.84-.16,1.26-.26l.65,3.37a18.81,18.81,0,0,1-2.55.51,20.19,20.19,0,0,1-2.75.19,7.12,7.12,0,0,1-5.24-1.74Q204.56,68.18,204.56,64.55Z"/><path class="cls-1" d="M217.93,64.32a12.4,12.4,0,0,1,.34-3.08A5.56,5.56,0,0,1,219.39,59a5.15,5.15,0,0,1,2.11-1.44,9.07,9.07,0,0,1,3.28-.51,9.25,9.25,0,0,1,3.31.51A5.08,5.08,0,0,1,230.18,59a5.55,5.55,0,0,1,1.11,2.27,13.86,13.86,0,0,1,0,6.19,5.61,5.61,0,0,1-1.17,2.31A5.17,5.17,0,0,1,228,71.17a10.76,10.76,0,0,1-6.42,0,5.17,5.17,0,0,1-2.11-1.43,5.61,5.61,0,0,1-1.17-2.31A12.3,12.3,0,0,1,217.93,64.32Zm4.38,0a9.94,9.94,0,0,0,.25,2.46,2.15,2.15,0,0,0,.81,1.29,2.47,2.47,0,0,0,1.41.37,2.44,2.44,0,0,0,1.44-.37,2.27,2.27,0,0,0,.79-1.29,9.41,9.41,0,0,0,.26-2.46,10.55,10.55,0,0,0-.23-2.46,2.14,2.14,0,0,0-.77-1.26,2.62,2.62,0,0,0-1.49-.36,2.69,2.69,0,0,0-1.47.36,2.05,2.05,0,0,0-.78,1.26A11.23,11.23,0,0,0,222.31,64.32Z"/><path class="cls-1" d="M237.57,57.28v1.64a10.44,10.44,0,0,1,1.37-1.11,5,5,0,0,1,1.23-.59,4.45,4.45,0,0,1,1.35-.2,7.08,7.08,0,0,1,.88.07,7.67,7.67,0,0,1,.93.19l-.67,3.9a6.18,6.18,0,0,0-.93-.2,6.92,6.92,0,0,0-.86-.06,4.44,4.44,0,0,0-1.39.22,5.29,5.29,0,0,0-1.49.79V71.4h-4.26V57.28Z"/><path class="cls-1" d="M243.54,67.53a4.18,4.18,0,0,1,.48-2.12,3.29,3.29,0,0,1,1.48-1.31,10.27,10.27,0,0,1,2.53-.77,30.91,30.91,0,0,1,3.64-.42V62A1.21,1.21,0,0,0,251,60.9a3.79,3.79,0,0,0-1.85-.37c-.37,0-.78,0-1.23,0a9.63,9.63,0,0,0-1.44.21c-.51.1-1,.21-1.51.33l-.7-3.29a19,19,0,0,1,2.56-.59,17.43,17.43,0,0,1,2.6-.22,10.44,10.44,0,0,1,3.72.56,3.91,3.91,0,0,1,2.07,1.68,5.41,5.41,0,0,1,.65,2.75v4.9a1.38,1.38,0,0,0,.2.87.56.56,0,0,0,.45.22h.3a.59.59,0,0,0,.3-.09l.31,3.06a4.13,4.13,0,0,1-1.12.51,5,5,0,0,1-1.43.19,3.4,3.4,0,0,1-1.76-.41,2.82,2.82,0,0,1-1.06-1.2c-.44.31-.89.59-1.35.85a6.48,6.48,0,0,1-1.48.57,7.45,7.45,0,0,1-1.79.19,4.39,4.39,0,0,1-1.57-.28,3.82,3.82,0,0,1-1.25-.82,3.52,3.52,0,0,1-.8-1.3A4.94,4.94,0,0,1,243.54,67.53Zm4.26-.26a1.74,1.74,0,0,0,.36,1.22,1.28,1.28,0,0,0,1,.39,3.18,3.18,0,0,0,.88-.13,3.92,3.92,0,0,0,.91-.36,2.26,2.26,0,0,0,.73-.6V65.17a12.12,12.12,0,0,0-1.68.2,5.66,5.66,0,0,0-1.19.35,1.63,1.63,0,0,0-.74.59A1.72,1.72,0,0,0,247.8,67.27Z"/><path class="cls-1" d="M263.86,71.66a4.8,4.8,0,0,1-2.33-.53,3.37,3.37,0,0,1-1.46-1.68,7.4,7.4,0,0,1-.49-2.93V60.35h-2V57.54l2-.26.52-3h3.74v3h3.53v3.09h-3.53v5.81a2.29,2.29,0,0,0,.36,1.47,1.39,1.39,0,0,0,1.14.43,5.36,5.36,0,0,0,1-.09l1-.22.6,3.22a12.52,12.52,0,0,1-2.12.51A12.22,12.22,0,0,1,263.86,71.66Z"/><path class="cls-1" d="M271.7,55.8a2.75,2.75,0,0,1-1.89-.53,2,2,0,0,1-.6-1.59,2.09,2.09,0,0,1,.58-1.64,3.75,3.75,0,0,1,3.81,0,2.09,2.09,0,0,1,.59,1.64,2,2,0,0,1-.59,1.59A2.78,2.78,0,0,1,271.7,55.8Zm-2.15,15.6V57.28h4.25V71.4Z"/><path class="cls-1" d="M275.93,64.32a12.4,12.4,0,0,1,.34-3.08A5.46,5.46,0,0,1,277.4,59a5,5,0,0,1,2.1-1.44,9.11,9.11,0,0,1,3.28-.51,9.21,9.21,0,0,1,3.31.51A5.08,5.08,0,0,1,288.18,59a5.69,5.69,0,0,1,1.12,2.27,12.92,12.92,0,0,1,.33,3.08,12.3,12.3,0,0,1-.36,3.11,5.61,5.61,0,0,1-1.17,2.31A5.1,5.1,0,0,1,286,71.17a9.18,9.18,0,0,1-3.21.49,9.09,9.09,0,0,1-3.2-.49,5.14,5.14,0,0,1-2.12-1.43,5.86,5.86,0,0,1-1.17-2.31A12.3,12.3,0,0,1,275.93,64.32Zm4.39,0a10,10,0,0,0,.24,2.46,2.15,2.15,0,0,0,.81,1.29,2.47,2.47,0,0,0,1.41.37,2.44,2.44,0,0,0,1.44-.37,2.22,2.22,0,0,0,.79-1.29,9,9,0,0,0,.26-2.46,10,10,0,0,0-.23-2.46,2.14,2.14,0,0,0-.77-1.26,2.62,2.62,0,0,0-1.49-.36,2.65,2.65,0,0,0-1.46.36,2,2,0,0,0-.78,1.26A10.64,10.64,0,0,0,280.32,64.32Z"/><path class="cls-1" d="M291.74,71.4V57.28h3.86V58.5a17.17,17.17,0,0,1,1.64-.84,7.25,7.25,0,0,1,1.5-.48A7.93,7.93,0,0,1,300.3,57a4.82,4.82,0,0,1,2.31.5,3.17,3.17,0,0,1,1.36,1.4,4.77,4.77,0,0,1,.46,2.15V71.4h-4.26V62.47a2,2,0,0,0-.44-1.42,1.68,1.68,0,0,0-1.25-.45,3.73,3.73,0,0,0-.8.1,5.87,5.87,0,0,0-.82.23,7.18,7.18,0,0,0-.84.35V71.4Z"/><path class="cls-2" d="M57.19,10.48a16.1,16.1,0,0,1-24.48,0A16,16,0,0,1,28.83,0,16,16,0,0,1,25,10.48a16.1,16.1,0,0,1-24.48,0H0V67.4A16.47,16.47,0,0,0,16.47,83.87H40.93A16.47,16.47,0,0,0,57.4,67.4V10.48ZM21.36,38.82v7.34h22v22H14V59H25.28a5.55,5.55,0,1,0-.14-3.67H14V35.89L28.83,21.08l3.06,3.06L43.38,35.63v6.86H36V38.82h0l-7.19-7.34,0,0-.13-.13"/></g></g></svg>