<svg xmlns="http://www.w3.org/2000/svg" viewBox="0 0 156.44 60.67"><defs><style>.cls-1{fill:#1f1e26;}.cls-2{fill:#93278f;}</style></defs><g id="Layer_2" data-name="Layer 2"><g id="Layer_1-2" data-name="Layer 1"><path class="cls-1" d="M74.52,22.32l-1.28,5.2A18.22,18.22,0,0,0,71.4,27a18,18,0,0,0-2.14-.4c-.73-.09-1.48-.17-2.24-.22s-1.47-.08-2.14-.08a8.13,8.13,0,0,0-3.64.64,2.1,2.1,0,0,0-1.24,2,2.19,2.19,0,0,0,.4,1.28,3.73,3.73,0,0,0,1.28,1,13.15,13.15,0,0,0,2.28.88q1.4.42,3.36.9A23.09,23.09,0,0,1,71,34.26,10,10,0,0,1,73.66,36a6.17,6.17,0,0,1,1.58,2.28,8,8,0,0,1,.52,3,7.41,7.41,0,0,1-1.42,4.58,8.61,8.61,0,0,1-4.22,2.88,21.18,21.18,0,0,1-6.92,1q-1.28,0-2.76-.12c-1-.08-2-.2-2.92-.36s-1.89-.35-2.8-.58-1.76-.47-2.56-.74l1.32-5.2a18.07,18.07,0,0,0,2.42.74c.87.2,1.75.39,2.64.56a24.91,24.91,0,0,0,2.62.36c.85.07,1.68.1,2.48.1a11.63,11.63,0,0,0,2.92-.3,3.32,3.32,0,0,0,1.66-.9,2.13,2.13,0,0,0,.54-1.48,1.73,1.73,0,0,0-.54-1.26,5.2,5.2,0,0,0-1.62-1,24.83,24.83,0,0,0-2.7-.94c-1.08-.32-2.32-.71-3.74-1.16A16.23,16.23,0,0,1,57,36.12a9.47,9.47,0,0,1-2.26-1.72,6.58,6.58,0,0,1-1.38-2.26,8.32,8.32,0,0,1-.48-2.9,8.14,8.14,0,0,1,.7-3.32,6.85,6.85,0,0,1,2.14-2.66,10.77,10.77,0,0,1,3.7-1.72,20.67,20.67,0,0,1,5.38-.62,34.56,34.56,0,0,1,3.7.2c1.22.13,2.35.31,3.4.52A19.85,19.85,0,0,1,74.52,22.32Z"/><path class="cls-1" d="M91.08,49.72a19,19,0,0,1-4.44-.48,11.48,11.48,0,0,1-3.58-1.5A8.42,8.42,0,0,1,80.44,45a14.36,14.36,0,0,1-1.62-4.08,23.8,23.8,0,0,1-.58-5.62,26.42,26.42,0,0,1,.52-5.62,12.36,12.36,0,0,1,1.58-4A9.26,9.26,0,0,1,83,22.94a10.88,10.88,0,0,1,3.58-1.54,19.41,19.41,0,0,1,4.52-.48,19.77,19.77,0,0,1,4.52.48,11,11,0,0,1,3.58,1.5,8.56,8.56,0,0,1,2.58,2.7,13.31,13.31,0,0,1,1.58,4.08,25.49,25.49,0,0,1,.54,5.56,26.2,26.2,0,0,1-.54,5.66,12.64,12.64,0,0,1-1.62,4.1,9.21,9.21,0,0,1-2.62,2.72,10.8,10.8,0,0,1-3.56,1.52A19.3,19.3,0,0,1,91.08,49.72Zm0-5.32a7.57,7.57,0,0,0,2-.26,4,4,0,0,0,1.66-.9,5.3,5.3,0,0,0,1.22-1.66A10.14,10.14,0,0,0,96.72,39,21.05,21.05,0,0,0,97,35.28a20.48,20.48,0,0,0-.28-3.64,10.44,10.44,0,0,0-.78-2.6,5,5,0,0,0-1.22-1.66,4.28,4.28,0,0,0-1.64-.88,7.45,7.45,0,0,0-2-.26,7.24,7.24,0,0,0-2,.26,4.65,4.65,0,0,0-1.64.84A4.7,4.7,0,0,0,86.2,29a10.07,10.07,0,0,0-.8,2.64,21.12,21.12,0,0,0-.28,3.7,19.68,19.68,0,0,0,.3,3.7,10.79,10.79,0,0,0,.8,2.58,5,5,0,0,0,1.22,1.66,4.27,4.27,0,0,0,1.62.88A7.38,7.38,0,0,0,91.08,44.4Z"/><path class="cls-1" d="M105.84,49.32v-5.4l14-17V26.8H106.56V21.32h21.36v5.36L114.16,43.76v.08h14.56v5.48Z"/><path class="cls-1" d="M130.44,49.32l8.84-28.12h8.16l9,28.12H149l-1.52-5.2H139l-1.52,5.2Zm9.8-10.76h6l-3-12.12Z"/><path class="cls-2" d="M41.37,7.58a11.6,11.6,0,0,1-8.85,4.08,11.62,11.62,0,0,1-8.86-4.08A11.56,11.56,0,0,1,20.86,0a11.57,11.57,0,0,1-2.81,7.58A11.61,11.61,0,0,1,9.2,11.66,11.62,11.62,0,0,1,.34,7.58H0V48.76A11.91,11.91,0,0,0,11.91,60.67h17.7A11.91,11.91,0,0,0,41.52,48.76V7.58ZM15.45,28.08v5.31H31.38V49.32H10.14V42.68h8.14a4,4,0,0,0,3.93,2.56,4,4,0,1,0-4-5.21h-8V33.47h0V26L20.85,15.25l2.22,2.21,8.31,8.31v5H26.07V28.08h0l-5.2-5.31h0l-.1-.09"/></g></g></svg>